<?xml version="1.0" standalone="no"?>
<!DOCTYPE svg PUBLIC "-//W3C//DTD SVG 20010904//EN"
 "http://www.w3.org/TR/2001/REC-SVG-20010904/DTD/svg10.dtd">
<svg version="1.0" xmlns="http://www.w3.org/2000/svg"
 width="150.000000pt" height="150.000000pt" viewBox="0 0 150.000000 150.000000"
 preserveAspectRatio="xMidYMid meet">
<metadata>
Created by potrace 1.14, written by Peter Selinger 2001-2017
</metadata>
<g transform="translate(0.000000,150.000000) scale(0.100000,-0.100000)"
fill="#000000" stroke="none">
<path d="M0 750 l0 -750 750 0 750 0 0 750 0 750 -750 0 -750 0 0 -750z m755
363 c-12 -66 -25 -159 -25 -176 0 -15 7 -18 53 -15 l52 3 14 108 14 107 54 0
c61 0 59 9 39 -127 l-13 -93 44 0 43 0 0 -50 0 -50 -49 0 c-55 0 -51 5 -66
-97 l-7 -43 41 0 41 0 0 -50 0 -50 -49 0 -48 0 -13 -110 -13 -110 -55 0 -55 0
7 53 c3 28 9 78 13 110 l6 57 -51 0 c-58 0 -52 10 -73 -137 l-11 -83 -54 0
c-37 0 -54 4 -54 13 0 11 13 103 25 175 l6 32 -46 0 -45 0 0 50 0 50 49 0 c28
0 52 3 54 8 3 4 8 35 12 70 l7 62 -46 0 -46 0 0 50 0 50 54 0 53 0 12 93 c18
134 14 127 76 127 54 0 54 0 50 -27z"/>
<path d="M705 768 c-3 -29 -9 -61 -11 -70 -5 -16 2 -18 50 -18 54 0 55 0 60
33 3 17 8 49 11 70 l6 37 -55 0 -54 0 -7 -52z"/>
</g>
</svg>
